<svg xmlns="http://www.w3.org/2000/svg" viewBox="0 0 120 120" role="img" aria-label="What About Bob's Tree Service icon">
  <defs>
    <linearGradient id="glow" x1="0%" y1="0%" x2="100%" y2="100%">
      <stop offset="0%" stop-color="#ffd98a" />
      <stop offset="100%" stop-color="#77c84d" />
    </linearGradient>
  </defs>
  <rect width="120" height="120" rx="30" fill="#061109" />
  <circle cx="60" cy="60" r="42" fill="none" stroke="#ffd98a" stroke-width="4.5" opacity="0.9" />
  <circle cx="60" cy="60" r="31" fill="none" stroke="#77c84d" stroke-width="2.5" opacity="0.8" />
  <circle cx="60" cy="60" r="23" fill="#0b1810" />
  <path
    d="M39 58c0-12 10-22 23-22 4 0 8 1 11 3 3-5 9-8 15-8 11 0 20 9 20 20 0 11-9 20-21 20H50c-6 0-11-6-11-13Z"
    fill="url(#glow)"
  />
  <path d="M56 59h8l5 28H51z" fill="#7a4e23" />
  <path d="M46 86c8-4 14-6 22-6 7 0 13 1 18 4" fill="none" stroke="#ffd98a" stroke-width="4" stroke-linecap="round" />
</svg>
